<mxfile host="Electron" agent="Mozilla/5.0 (Macintosh; Intel Mac OS X 10_15_7) AppleWebKit/537.36 (KHTML, like Gecko) draw.io/26.0.16 Chrome/132.0.6834.196 Electron/34.2.0 Safari/537.36" version="26.0.16">
  <diagram name="Page-1" id="H0o3iRHYSMubLEKCPk0K">
    <mxGraphModel dx="1434" dy="2076" grid="1" gridSize="10" guides="1" tooltips="1" connect="1" arrows="1" fold="1" page="1" pageScale="1" pageWidth="827" pageHeight="1169" math="0" shadow="0">
      <root>
        <mxCell id="0" />
        <mxCell id="1" parent="0" />
        <mxCell id="xep7mtXAdcKGbDqO0VW0-2" value="pay as you go app services" style="image;aspect=fixed;html=1;points=[];align=center;fontSize=12;image=img/lib/azure2/containers/App_Services.svg;" vertex="1" parent="1">
          <mxGeometry x="120" y="116" width="64" height="64" as="geometry" />
        </mxCell>
        <mxCell id="xep7mtXAdcKGbDqO0VW0-4" value="" style="image;aspect=fixed;html=1;points=[];align=center;fontSize=12;image=img/lib/azure2/app_services/App_Service_Plans.svg;" vertex="1" parent="1">
          <mxGeometry x="50" y="60" width="50" height="50" as="geometry" />
        </mxCell>
        <mxCell id="xep7mtXAdcKGbDqO0VW0-5" value="" style="image;aspect=fixed;html=1;points=[];align=center;fontSize=12;image=img/lib/azure2/compute/Function_Apps.svg;" vertex="1" parent="1">
          <mxGeometry x="363" y="90" width="102" height="90" as="geometry" />
        </mxCell>
        <mxCell id="xep7mtXAdcKGbDqO0VW0-7" style="edgeStyle=orthogonalEdgeStyle;rounded=0;orthogonalLoop=1;jettySize=auto;html=1;" edge="1" parent="1" source="xep7mtXAdcKGbDqO0VW0-6" target="xep7mtXAdcKGbDqO0VW0-5">
          <mxGeometry relative="1" as="geometry" />
        </mxCell>
        <mxCell id="xep7mtXAdcKGbDqO0VW0-6" value="" style="image;aspect=fixed;html=1;points=[];align=center;fontSize=12;image=img/lib/azure2/integration/Service_Bus.svg;" vertex="1" parent="1">
          <mxGeometry x="380" y="-10" width="68" height="60" as="geometry" />
        </mxCell>
      </root>
    </mxGraphModel>
  </diagram>
</mxfile>
